<svg width="1280" height="720" xmlns="http://www.w3.org/2000/svg" xmlns:xlink="http://www.w3.org/1999/xlink" overflow="hidden"><g><rect x="0" y="0" width="1280" height="720" fill="#FFFFFF"/><rect x="160" y="0" width="960" height="720" fill="#FFFFFF"/><rect x="160" y="0" width="960" height="720" fill="#F2F2F2"/><rect x="160" y="0" width="960" height="720" fill="#008AB8" fill-opacity="0.0705882"/><rect x="0" y="0" width="656" height="720" fill="#FFFFFF" fill-opacity="0.8" transform="matrix(1 0 0 -1 464 720)"/><text font-family="Arial,Arial_MSFontService,sans-serif" font-weight="400" font-size="25" transform="translate(672.225 76)">Team Roles Map</text><path d="M719.5 404C719.5 363.407 752.407 330.5 793 330.5 833.593 330.5 866.5 363.407 866.5 404 866.5 444.593 833.593 477.5 793 477.5 752.407 477.5 719.5 444.593 719.5 404Z" stroke="#FFFFFF" stroke-width="2.66667" stroke-linejoin="round" stroke-miterlimit="10" fill="#7030A0" fill-rule="evenodd"/><text fill="#FFFFFF" font-family="Arial,Arial_MSFontService,sans-serif" font-weight="400" font-size="20" transform="translate(767.675 378)">Team</text><text fill="#FFFFFF" font-family="Arial,Arial_MSFontService,sans-serif" font-weight="400" font-size="20" transform="translate(757.108 399)">Roles</text><text fill="#FFFFFF" font-family="Arial,Arial_MSFontService,sans-serif" font-weight="400" font-size="20" transform="translate(813.795 399)">&amp;</text><text fill="#FFFFFF" font-family="Arial,Arial_MSFontService,sans-serif" font-weight="400" font-size="20" transform="translate(771.562 420)">Task</text><text fill="#FFFFFF" font-family="Arial,Arial_MSFontService,sans-serif" font-weight="400" font-size="20" transform="translate(742.108 441)">Distribution</text><path d="M792.768 330.5 792.768 286.195" stroke="#00276F" stroke-width="2.66667" stroke-linejoin="round" stroke-miterlimit="10" fill="none" fill-rule="evenodd"/><path d="M719.5 213C719.5 172.407 752.407 139.5 793 139.5 833.593 139.5 866.5 172.407 866.5 213 866.5 253.593 833.593 286.5 793 286.5 752.407 286.5 719.5 253.593 719.5 213Z" stroke="#FFFFFF" stroke-width="2.66667" stroke-linejoin="round" stroke-miterlimit="10" fill="#00338D" fill-rule="evenodd"/><text fill="#FFFFFF" font-family="Arial,Arial_MSFontService,sans-serif" font-weight="400" font-size="15" transform="translate(748.098 209)">Finja Sterner:</text><text fill="#FFFFFF" font-family="Arial,Arial_MSFontService,sans-serif" font-weight="400" font-size="15" transform="translate(769.292 224)">Design</text><path d="M855.776 367.083 894.146 344.93" stroke="#00276F" stroke-width="2.66667" stroke-linejoin="round" stroke-miterlimit="10" fill="none" fill-rule="evenodd"/><path d="M884.5 309C884.5 268.407 917.407 235.5 958 235.5 998.593 235.5 1031.5 268.407 1031.5 309 1031.5 349.593 998.593 382.5 958 382.5 917.407 382.5 884.5 349.593 884.5 309Z" stroke="#FFFFFF" stroke-width="2.66667" stroke-linejoin="round" stroke-miterlimit="10" fill="#00338D" fill-rule="evenodd"/><text fill="#FFFFFF" font-family="Arial,Arial_MSFontService,sans-serif" font-weight="400" font-size="15" transform="translate(914.184 297)">Lisa Fritsche:</text><text fill="#FFFFFF" font-family="Arial,Arial_MSFontService,sans-serif" font-weight="400" font-size="15" transform="translate(934.971 312)">Project</text><text fill="#FFFFFF" font-family="Arial,Arial_MSFontService,sans-serif" font-weight="400" font-size="15" transform="translate(928.844 327)">Manager</text><path d="M855.776 440.581 894.146 462.734" stroke="#00276F" stroke-width="2.66667" stroke-linejoin="round" stroke-miterlimit="10" fill="none" fill-rule="evenodd"/><path d="M884.5 500C884.5 459.407 917.407 426.5 958 426.5 998.593 426.5 1031.5 459.407 1031.5 500 1031.5 540.593 998.593 573.5 958 573.5 917.407 573.5 884.5 540.593 884.5 500Z" stroke="#FFFFFF" stroke-width="2.66667" stroke-linejoin="round" stroke-miterlimit="10" fill="#7892EE" fill-rule="evenodd"/><text fill="#FFFFFF" font-family="Arial,Arial_MSFontService,sans-serif" font-weight="400" font-size="15" transform="translate(929.254 489)">Vanessa</text><text fill="#FFFFFF" font-family="Arial,Arial_MSFontService,sans-serif" font-weight="400" font-size="15" transform="translate(937.007 504)">Reich:</text><text fill="#FFFFFF" font-family="Arial,Arial_MSFontService,sans-serif" font-weight="400" font-size="15" transform="translate(908.461 519)">Documentation</text><path d="M792.232 477.5 792.232 521.805" stroke="#00276F" stroke-width="2.66667" stroke-linejoin="round" stroke-miterlimit="10" fill="none" fill-rule="evenodd"/><path d="M719.5 596C719.5 555.407 752.407 522.5 793 522.5 833.593 522.5 866.5 555.407 866.5 596 866.5 636.593 833.593 669.5 793 669.5 752.407 669.5 719.5 636.593 719.5 596Z" stroke="#FFFFFF" stroke-width="2.66667" stroke-linejoin="round" stroke-miterlimit="10" fill="#2272FF" fill-rule="evenodd"/><text fill="#FFFFFF" font-family="Arial,Arial_MSFontService,sans-serif" font-weight="400" font-size="15" transform="translate(760.732 584)">Christoph</text><text fill="#FFFFFF" font-family="Arial,Arial_MSFontService,sans-serif" font-weight="400" font-size="15" transform="translate(763.998 599)">Koelsch:</text><text fill="#FFFFFF" font-family="Arial,Arial_MSFontService,sans-serif" font-weight="400" font-size="15" transform="translate(768.072 614)">Testing</text><path d="M728.473 440.582 690.104 462.734" stroke="#00276F" stroke-width="2.66667" stroke-linejoin="round" stroke-miterlimit="10" fill="none" fill-rule="evenodd"/><path d="M553.5 500C553.5 459.407 586.407 426.5 627 426.5 667.593 426.5 700.5 459.407 700.5 500 700.5 540.593 667.593 573.5 627 573.5 586.407 573.5 553.5 540.593 553.5 500Z" stroke="#FFFFFF" stroke-width="2.66667" stroke-linejoin="round" stroke-miterlimit="10" fill="#2272FF" fill-rule="evenodd"/><text fill="#FFFFFF" font-family="Arial,Arial_MSFontService,sans-serif" font-weight="400" font-size="15" transform="translate(610.142 489)">Viola</text><text fill="#FFFFFF" font-family="Arial,Arial_MSFontService,sans-serif" font-weight="400" font-size="15" transform="translate(582.016 504)">Wollenweber:</text><text fill="#FFFFFF" font-family="Arial,Arial_MSFontService,sans-serif" font-weight="400" font-size="15" transform="translate(588.962 519)">Wireframes</text><path d="M728.473 367.083 690.104 344.931" stroke="#00276F" stroke-width="2.66667" stroke-linejoin="round" stroke-miterlimit="10" fill="none" fill-rule="evenodd"/><path d="M553.5 309C553.5 268.407 586.407 235.5 627 235.5 667.593 235.5 700.5 268.407 700.5 309 700.5 349.593 667.593 382.5 627 382.5 586.407 382.5 553.5 349.593 553.5 309Z" stroke="#FFFFFF" stroke-width="2.66667" stroke-linejoin="round" stroke-miterlimit="10" fill="#2272FF" fill-rule="evenodd"/><text fill="#FFFFFF" font-family="Arial,Arial_MSFontService,sans-serif" font-weight="400" font-size="15" transform="translate(593.446 297)">Paul Fritz:</text><text fill="#FFFFFF" font-family="Arial,Arial_MSFontService,sans-serif" font-weight="400" font-size="15" transform="translate(597.912 312)">Backend</text><text fill="#FFFFFF" font-family="Arial,Arial_MSFontService,sans-serif" font-weight="400" font-size="15" transform="translate(583.232 327)">Development</text><path d="M897.189 271.521 858.537 252.196 859.879 249.513 898.53 268.838ZM858.537 255.55 852.5 247.5 862.562 247.5Z" fill="#1844E2"/><path d="M960 383.5 960 421.359 957 421.359 957 383.5ZM963 419.859 958.5 428.859 954 419.859Z" fill="#1844E2"/></g></svg>